/* XPM */
static char *tile421750184400[] = {
/* columns rows colors chars-per-pixel */
"64 64 142 2 ",
"   c #AA8526",
".  c #AC8726",
"X  c #AF8827",
"o  c #AE8927",
"O  c #B18A27",
"+  c #B28B27",
"@  c #B48D28",
"#  c #B68E28",
"$  c #B78F29",
"%  c #BA9229",
"&  c #B9912A",
"*  c #BC922A",
"=  c #BD932A",
"-  c #C0962B",
";  c #C1972B",
":  c #C49A2B",
">  c #C3992C",
",  c #C69B2C",
"<  c #C79B2C",
"1  c #CA9D2D",
"2  c #CB9F2D",
"3  c #CDA02D",
"4  c #CEA12D",
"5  c #D0A32E",
"6  c #D1A42F",
"7  c #D1A430",
"8  c #D2A532",
"9  c #D2A634",
"0  c #D3A636",
"q  c #D2A637",
"w  c #D3A839",
"e  c #D3A93A",
"r  c #D4AA3D",
"t  c #D4AA3E",
"y  c #D5AB40",
"u  c #D4AA41",
"i  c #D5AB43",
"p  c #D5AD44",
"a  c #D6AE47",
"s  c #D6AE48",
"d  c #D7AF49",
"f  c #D7B04B",
"g  c #D7B04C",
"h  c #D8B14E",
"j  c #D8B150",
"k  c #D9B452",
"l  c #D9B453",
"z  c #D9B455",
"x  c #D9B456",
"c  c #DAB558",
"v  c #DAB55A",
"b  c #DAB75D",
"n  c #DBB85C",
"m  c #DBB95F",
"M  c #DCBA63",
"N  c #DDBB64",
"B  c #DDBB65",
"V  c #DEBC67",
"C  c #DDBD68",
"Z  c #DEBE6A",
"A  c #DEBE6B",
"S  c #DFBF6E",
"D  c #DFBF6F",
"F  c #DFC071",
"G  c #DFC072",
"H  c #E0C274",
"J  c #E0C376",
"K  c #E1C478",
"L  c #E1C479",
"P  c #E1C47B",
"I  c #E1C47C",
"U  c #E2C57D",
"Y  c #E3C67F",
"T  c #E3C881",
"R  c #E4C983",
"E  c #E3C984",
"W  c #E4CA86",
"Q  c #E4CA87",
"!  c #E5CB8A",
"~  c #E5CB8B",
"^  c #E6CE8D",
"/  c #E5CD8E",
"(  c #E6CE90",
")  c #E6CE91",
"_  c #E7CF94",
"`  c #E7D097",
"'  c #E8D198",
"]  c #E8D299",
"[  c #E9D39B",
"{  c #E9D49D",
"}  c #EAD59F",
"|  c #EAD5A0",
" . c #EAD5A2",
".. c #EAD5A3",
"X. c #EBD8A5",
"o. c #EBD8A7",
"O. c #EBD9AA",
"+. c #ECD9A9",
"@. c #ECDAAC",
"#. c #ECDAAD",
"$. c #EDDBB0",
"%. c #EDDDB1",
"&. c #EEDEB2",
"*. c #EFDFB4",
"=. c #EEDEB5",
"-. c #EFDFB7",
";. c #EFDFB8",
":. c #F0E1BB",
">. c #F0E1BC",
",. c #F0E3BE",
"<. c #F0E3BF",
"1. c #F1E4C1",
"2. c #F1E4C3",
"3. c #F2E5C5",
"4. c #F2E5C6",
"5. c #F2E7C8",
"6. c #F3E8CB",
"7. c #F4E9CE",
"8. c #F5EAD0",
"9. c #F4EAD1",
"0. c #F5EBD3",
"q. c #F5ECD4",
"w. c #F6EED7",
"e. c #F6EED8",
"r. c #F6EEDB",
"t. c #F7EFDD",
"y. c #F8F2E1",
"u. c #F8F2E2",
"i. c #F8F3E4",
"p. c #F8F3E5",
"a. c #F9F4E6",
"s. c #FAF5E8",
"d. c #FAF5EA",
"f. c #FBF6EC",
"g. c #FBF8ED",
"h. c #FBF8F0",
"j. c #FCF9F2",
"k. c #FCFAF4",
"l. c #FCFAF7",
"z. c #FDFCF9",
"x. c #FEFEFE",
"c. c white",
/* pixels */
"o o o o o o o o o o o o o o o o o o o o o o o o o o o o o o o o o o + . o o o o o o o o o o o o o o o o o o o o o o o o o o o o ",
"o . o + + + + + + + + + + + + + + + + + + + + + + + + + + + + o . o . . + + + + + @ + + + + + + + + + + + + + + + + + + + o o o ",
"o X = 5 5 5 5 5 5 5 5 5 5 5 5 5 5 5 5 5 5 5 5 5 5 5 5 5 5 0 0 # . o . 5 3 3 3 5 3 3 3 3 3 3 3 4 4 4 4 4 4 4 4 4 4 4 4 4 3 = o o ",
"o + 5 u u u u u u u u u u u u u u u u u u u u u u u u g g v j & o . & v f d t t t t t t t t t t t t t t t t t t t t t t t 3 + o ",
"o + 5 u u u u u u u u u u u u u u u u u u u u u u g d v v B f + o . : M x x f f t t t t t t t t t t t t t t t t t t t t t 5 + o ",
"o + 5 u u u u u u u u u u u u u u u u u u u u g g v v B V D t o o o 8 H B B x x d d t t t t t t t t t t t t t t t t t t t 3 + o ",
"o + 5 u u u u u u u u u u u u u u u u u u g g v v B B J D U 0 o o + j Y H D M B z z g d t t t t t t t t t t t t t t t t t 3 + o ",
"o + 5 u u u u u u u u u u u u u u u u g g v v B B G G U T W 2 . o & J R P Y D H C M v v d d t u t t t t t t t t t t t t t 3 + o ",
"o . # t u u u u u u u u u u u u u f h v v B B D G Y Y R R ! > o o < W R R R U U G G N N z z d d t t t t t t t t t t t t t 3 + o ",
"o o . + , u u u u u u u u u u g f v v B B G H Y Y R R W W R % o . w ! ! W W R R P U F G C C z z f f t t t t t t t t t t t 5 + o ",
"o o o . . # 8 u u u u u u g g v v B M H G Y Y R R W W ! ! C + o o k ! ! ! ! R W R R P U G G C C x x f f t t t t t t t t t #   o ",
"o . . o o . + & u u u f g v v B M F H Y U R R W W ! ! ^ / k o o # G ) ) ! ! ! ! W R R R T G D G N N x x f f t t t t t w # . . o ",
"o   . . o o . o # , u d v B B G H U Y R R W W ! ! ! ^ ^ ` t o o = ' ' ' ) ) ! ! ! ! W W R R G T F F N N x f t t t t 6 + . o o o ",
"o + &   . . o o   o & d B G G Y Y R R W W ! ! ^ ^ ` ` ` ' 3 o o 8 ..] ' ` ` / ` ! ! ! ! R R R R P Y F F N x f t t = + o o o . o ",
"o X = 2 = o . . o o o # 5 D Y R R W W ! ! ^ ^ ^ ` ' ` ] o.> o   u o.} } ] ] ` ' ) ) ! ! ! ! W E R R P H M x f w # o   o   + # o ",
"o X = 2 3 3 o o . o o . + 1 M W W ! ! ^ ! ` / ` ` ] ] ..! $ o o M O.o.X.....] ] ` ` ) ) ! ! ! ! R R R P H N f & o o o o & 6 = o ",
"o X = 2 4 4 4 , . + . + . . & t ) / / ) ) ' ' { ' ....o.F o o + ^ @.@.@.o.o.} ..] ] ` ' ) ) ! ! ! W R U G t # . o o o , j v = o ",
"o X = 2 4 2 2 2 0 2 & . . o o X 2 C ) _ ' ' ' ....o.o.@.k . + = %.-.%.%.+.+.o...X...] ] ` ` ) / ! ! R R e # . o o + 3 C P x = o ",
"o X = 2 2 4 4 4 0 u h 2 & o o o . # u ' ' ....o.o.@.@.%.t . o 3 1.>.-.-.%.%.@.@.X.X.} } ] } ' ` ! ! R 8 + o o o & e J J J v = o ",
"o X = 2 4 4 2 0 u j n C B 8 & . + o o > n %.o.@.@.%.%.4.> o . t 1.<.;.;.-.-.%.%.@.+.o.o.} } ] ` ) U 3 o o o o < b R P J P x = o ",
"X X - 1 4 4 2 0 u j n C J R n 5 + . o o + 0 / %.%.@.G 0 o o . & t x G } %.1.-.-.%.%.@.@.o.} ] ` M ;   o o # w W ( R K K J c = + ",
". X * 4 2 4 0 u j n C J T ! ) _ n 1 o o o . = 8 u > + . o o o o o . o + ; 5 y v P ] :.:.+.o.@.f $   o o = n ..} } ( R K J n = o ",
"X X * 4 4 4 0 u j n C J T ! / ) _ } f = . o o . . o o o o o o o o o o o o o o . + # : 5 u v 1 + o o o 8 Y X...} ] ( Y J P x = o ",
"X X * 4 1 0 u j n C J T ! / ) _ ' { ..W w o o o o o + 1 x M R M p 3 * + o o o o o o o o   o   o o + f @.@.o.....} } ` R J x = o ",
". X = 2 2 0 u j n C J R ! / ) _ ' { ..o.%.t o o o y ' p.g.j.j.l.z.g.7.o.J x 0 : $ o o o o o o . # F :.%.+.O.....} } ^ R P n = o ",
"X X = 2 0 u j n C J T ! / ) _ ' { ..+.@.%.x . o > a.g.j.j.l.l.x.x.x.l.l.j.j.g.p.-.! M y > o o   M 1.>.-.%.+.o...X.} ] ` R x = o ",
"X X = 2 0 u j n C J T ! / ) _ ' } ..+.@.%.u   o 0 g.j.l.l.x.x.x.x.x.x.x.l.l.j.g.s.i.t.w.) + o + ' <.>.-.%.@.o...} } ] ^ R x = o ",
"+ X = 0 u j n C J T ! / ) _ ' { ..+.@.%.-.0 o o g j.l.x.x.x.x.x.x.x.x.x.x.x.l.j.g.a.i.t.@.@ o @ } 3.1.>.;.%.@.o.....} } / M = o ",
". X = 0 u j n C J T ~ / ) _ ' { ..+.@.*.5.1 o o B h.l.x.x.x.x.x.x.x.x.x.x.x.l.j.g.g.i.t.@.+ o + } 3.1.:.-.@.@.+.....} ] ` n = o ",
"o X < u j b C J T ~ / ) _ ' { ..+.@.%.-.$.; o o ! l.x.x.x.x.x.x.x.x.x.x.x.x.x.l.j.g.a.i.&.$ o # o.6.3.1.:.-.%.@.o...X.} ] F > o ",
"o X < u j b C J T ~ / ) _ ' { ..+.@.*.-.{ # o + o.l.x.x.x.x.x.x.x.x.x.x.x.x.x.l.j.g.s.i.&.+ o + o.6.3.1.:.:.%.@.o.....} ] F = o ",
"o + 7 j n V J T ~ / ) _ ' { ..+.@.%.-.>.R X o # 4.x.x.x.x.x.x.x.x.x.x.x.x.x.x.x.k.j.g.s.-.@ o # +.8.7.3.<.:.:.%.+.o.....} J : o ",
"O O 4 j c F G Y ! / / / ' } ..+.@.&.-.>.C o + : y.x.x.x.x.x.x.x.x.x.x.x.x.x.x.x.l.j.g.s.-.# o @ O.7.6.4.1.>.-.%.@.o.....} J : o ",
"o O 7 g n F G R ! / ( ` ' ] ..O.@.&.-.>.j   o 8 j.x.x.x.x.x.x.x.x.x.x.x.x.x.x.x.l.j.g.s.-.+ o # O.0.6.4.1.>.-.%.@.o.....} J > o ",
"o . : p h n C G R ! / ` ` ' } ..+.@.&.;.t o o t j.l.x.x.x.x.x.x.x.x.x.x.x.x.x.l.j.g.a.p.%.+ o + o.6.4.1.>.-.%.@.o.....} } C > o ",
"O o 3 t h n F G R ! ! / ` ' ' ..@.@.&.>.5 o o x j.l.x.x.x.x.x.x.x.x.x.x.x.x.x.l.j.g.s.p.%.# o # X.6.4.1.>.-.%.@.o.....} ] F = o ",
". o * e u j n C J R ! / ) _ ' } ..+.@.%.= o o S g.j.l.x.x.x.x.x.x.x.x.x.x.x.l.j.g.s.a.t.@.+ o @ } 4.1.>.-.%.@.o.....} ] ` M = o ",
"O . & 0 u j n C J R ! / ) _ ' } ..+.%.k o o o b g.j.l.x.x.x.x.x.x.x.x.x.x.x.l.j.g.a.s.} e o o @ } 4.1.>.-.%.@.o.....} } / N = o ",
"o o = 3 0 u j n V P T ! / ) _ ' } ! t o o o o & R g.j.l.l.x.x.x.x.x.x.x.l.l.j.j.%.B 3 + o o o o e <.:.-.%.@.o.....} } / R x = o ",
"o + & 3 0 u j n C G T ! / ) _ ..j ; . o o o o o # n a.j.j.l.l.x.x.x.l.l.l.1.J 0 $ o o o o o o o % / >.-.%.@.o.....} } ^ R x = o ",
"o . = 2 4 0 u j n C J T ! / v 1 o o o o = 1 # o o o w -.g.j.j.l.l.l.w.U t = o o o o o + : 3 @ o . 0 1.%.@.o.....} ] ^ R J x = + ",
". + = 2 4 0 u j n C J R B 0 # . o o # i -.g.W , o o . > R g.f.i./ d ; o o o o o o ; u U 8.7.g   o o n %.@.o.....} } ` R J n = o ",
"o X = 2 4 4 0 u j n n 5 & . o o . 1 U p.y.p.s.>.w o o o + 8 j : + o o o o o & t K 5.e.0.7.6.&.1 o o = R o.....} } ^ R J J v = o ",
"o X = 2 2 2 0 u j 0 - o o o . # j 1.e.e.y.p.p.s.p.n # o o o o o o o . & 0 G -.p.e.e.0.0.7.6.1.G @ o o w @.....} ] ` R J P x = o ",
"X X = 2 4 2 4 1 # +   o . X 5 R 6.6.0.w.t.u.u.p.p.f.W & o o o o # 5 B O.s.t.e.e.0.0.9.7.5.1.<.<.t . o + x ..} ] ( R K K J c = o ",
". X = 2 4 2 X X . + o . = n 1.1.2.6.7.w.w.e.e.u.y.p.p.! o o o 3 ..f.t.t.e.e.0.0.7.7.5.5.2.2.>.-.( & o o = P } } ( R K K P c = o ",
"+ . = 2 & X . . . . + 0 W %.-.;.1.4.5.0.0.w.e.t.t.y.y.s.8 o o d t.t.e.e.0.0.7.7.5.5.2.1.>.1.;.-.@.v o o . 6 ] ( R K K K J c = o ",
"+ X & . . . X X . ; z *.$.%.-.>.1.4.5.5.5.7.0.w.e.e.t.y.v o o 3 p.e.0.0.0.7.4.5.2.2.>.1.;.;.-.%.@.-.8   o # f ( R K K K J c = o ",
". . . . o o o # 7 D o.O.@.@.%.-.>.1.1.4.4.5.7.7.9.w.w.e.P o o = 1.w.7.7.4.6.1.4.>.>.-.-.*.-.#.#.+...G # o o = B P P K K K c = + ",
"o . . o o o > d ) ' o.O.@.%.%.-.=.>.>.1.1.5.5.5.5.0.0.e...# o + R 7.3.6.1.4.>.>.;.-.-.-.#.#.+.+.......y o o . 3 J J J J K n = o ",
"o o o . # w K / / / ' o.@.@.@.%.%.=.=.>.>.1.1.5.2.7.5.0.5.: o . b 4.1.1.<.<.-.-.-.*.#.#.+.+.....| | } W >   o + e J J P P x = o ",
"o o o 3 b / / / / / ' o.@.@.@.%.$.%.%.-.-.;.>.1.2.4.2.5.0.e o o e 4.<.<.;.-.*.-.@.@.+.+...| | | } | ] ] d + o . = M P J J x = o ",
"o . e ! / / / / / / / ] o.@.@.@.@.%.$.%.%.=.=.>.>.1.1.4.4.j o o < 4.-.-.-.-.@.@.+.+.....| | | | ] } ' ' W 1 . o o 3 J P P c = + ",
"+ = C / / / / / / / / ] ' o.o.@.@.@.@.$.%.%.%.=.-.>.>.1.1.P o o # ` &.-.@.@.+.+.....} ..{ | { ' ' ' ! ! U M & o o # y J J c = o ",
". > S / / / / / / / / / / ' ' o.o.O.@.@.@.$.%.%.$.-.-.;.>.' $ o o V @.@.+.+...| | | } } { { ` ` ! ! U P G G 8 o o . ; V J v = o ",
"o > S ~ / / / / / / / / / / / ' ' o.o.@.@.@.@.@.$.%.$.-.-.1.: o . a O.O.....| | } } { ' ' ' ~ ~ Y U H G G G C , . o o 6 P x = o ",
". > C / / / / / / / / / / / / / / ` ] o.X.@.@.@.@.$.$.%.%.-.0 o o 6 o...} } } } { { ` ' ~ ~ E T G G G G G G G p # o o + f x = o ",
"o > C ^ / / / / / / / / / / / / / / / ] ] X.X.@.@.@.@.$.$.%.h . o = ` } } } ] ] ` ` ~ ~ U U G G G G G G G G G G 8 o o . > h = o ",
"o > F ^ / / / / / / / / / / / / / / ^ ^ / ] ] X.o.@.@.@.@.$.V o o + C ..} ] ' ' ~ ~ U T D D G G G G G G G G G G V >   o o 3 = o ",
"o > C / / / / / / / / / / / / / / / / ^ / / / ] ' o.o.@.@.@.R & o o p ] ' ' ! / U T D G D D G G G G G G G G G G G t + o o # & o ",
"o > F ^ ^ ^ ^ / ^ ^ ^ W / / / / ^ ! ^ W ^ W ! W / ' ' o.o.+.} > o . 6 ' ! ! U U D D D D G D D D G G G G G G G G G H 3 o o . + o ",
"o * g C V F C C C C F F F V V F N F F F F F F F C F F H H U U 3 . o & v b b x x z z v x v z x z x x x x x j x x x x p & . o   o ",
"o + * > > > > > > > > > > > > > > > : : : : > > > < : : , > : # . o o & = & = = = = & = & = = = = & = = = = = & = = = #   o o o ",
"o o o o o o o o o . o o o o o o o o o . . . o o o . . . o o o o o o o o o o o o o o o o o o o o o o o o o o o o o o o o o o o o "
};
